<svg id="Capa_1" enable-background="new 0 0 512 512" height="512" viewBox="0 0 512 512" width="512" xmlns="http://www.w3.org/2000/svg"><g><g><g><g><circle cx="256" cy="256" fill="#00ddc1" r="256"/></g></g></g><path d="m141.463 239.174 53.739 53.739v118.012l98.329 98.329c115.304-16.941 205.611-110.741 217.203-227.7l-133.798-133.798z" fill="#00baa0"/><g><g><path d="m327.967 119.046c-31.044-3.759-58.713 12.453-71.967 37.475-13.255-25.022-40.924-41.234-71.968-37.475-32.131 3.891-57.264 28.507-61.731 60.563-4.611 33.089 13.525 62.503 40.981 75.083l22.364 134.954c3.341 17.651 14.195 29.85 26.56 29.85s23.22-12.198 26.56-29.85l17.234-107.033 17.233 107.034c3.34 17.651 14.195 29.85 26.56 29.85s23.22-12.198 26.56-29.85l22.364-134.954c27.456-12.58 45.592-41.993 40.981-75.082-4.467-32.058-29.599-56.674-61.731-60.565z" fill="#eef4ff"/></g><path d="m327.967 119.046c-31.044-3.758-58.713 12.453-71.967 37.475v126.094-.002l17.233 107.034c3.34 17.651 14.194 29.85 26.56 29.85 12.365 0 23.22-12.198 26.56-29.85l22.364-134.954c27.456-12.58 45.592-41.994 40.981-75.083-4.467-32.057-29.599-56.673-61.731-60.564z" fill="#d6e9f8"/></g></g></svg>